<?xml version="1.0" standalone="no"?>
<!DOCTYPE svg PUBLIC "-//W3C//DTD SVG 20010904//EN"
 "http://www.w3.org/TR/2001/REC-SVG-20010904/DTD/svg10.dtd">
<svg version="1.0" xmlns="http://www.w3.org/2000/svg"
 width="1047.000000pt" height="457.000000pt" viewBox="0 0 1047.000000 457.000000"
 preserveAspectRatio="xMidYMid meet">

<g transform="translate(0.000000,457.000000) scale(0.100000,-0.100000)"
fill="#000000" stroke="none">
<path d="M2510 4550 c-465 -38 -787 -194 -1094 -530 -89 -96 -188 -230 -260
-350 -54 -90 -110 -160 -128 -160 -4 0 -8 221 -8 490 l0 490 -470 0 -470 0 0
-1305 0 -1305 460 0 459 0 3 438 3 437 36 86 c43 102 121 238 233 404 105 157
283 339 406 413 83 51 202 103 268 117 l34 7 -43 -43 c-178 -183 -205 -443
-67 -649 127 -191 387 -301 638 -269 327 40 555 269 554 554 -1 167 -70 302
-219 423 l-40 33 70 -5 c39 -3 125 -8 193 -12 l122 -6 0 355 0 355 -42 6
c-178 26 -491 39 -638 26z"/>
<path d="M4400 4504 c0 -3 29 -47 64 -97 493 -707 397 -1607 -235 -2222 -119
-116 -185 -170 -306 -250 -40 -26 -73 -50 -73 -51 0 -2 270 -4 600 -4 l600 0
0 1315 0 1315 -325 0 c-179 0 -325 -3 -325 -6z"/>
<path d="M6030 3195 l0 -1315 185 0 185 0 0 955 0 955 659 0 658 0 6 98 c12
217 114 408 299 562 l66 55 -342 3 c-187 1 -347 0 -353 -3 -10 -3 -13 -58 -13
-230 l0 -225 -487 2 -488 3 -3 228 -2 227 -185 0 -185 0 0 -1315z"/>
<path d="M9220 4300 l0 -210 -192 0 c-183 0 -196 -1 -245 -24 -74 -35 -120
-111 -137 -228 l-7 -48 290 0 291 0 0 -265 0 -265 -287 -2 -288 -3 -3 -687 -2
-688 860 0 860 0 0 1315 0 1315 -570 0 -570 0 0 -210z"/>
<path d="M7387 3254 c-4 -4 -7 -315 -7 -691 l0 -683 165 0 165 0 -2 688 -3
687 -156 3 c-85 1 -158 -1 -162 -4z"/>
<path d="M2979 1335 c-233 -44 -391 -177 -460 -386 -21 -66 -24 -91 -24 -234
0 -142 3 -168 24 -233 41 -125 120 -230 225 -297 204 -130 553 -135 761 -10
171 103 261 268 272 501 14 277 -97 494 -301 594 -44 22 -108 47 -141 55 -88
23 -264 28 -356 10z m334 -155 c158 -60 250 -203 264 -413 19 -294 -112 -493
-353 -538 -121 -23 -272 9 -364 76 -116 85 -170 214 -170 410 0 260 111 429
315 482 75 19 236 10 308 -17z"/>
<path d="M60 715 l0 -605 95 0 95 0 0 240 0 240 113 0 113 0 230 -240 229
-240 124 0 123 0 -140 148 c-77 81 -192 198 -256 261 l-115 114 77 38 c89 43
160 108 194 177 33 67 33 217 1 278 -47 88 -168 164 -293 183 -36 6 -183 11
-327 11 l-263 0 0 -605z m473 465 c113 -11 181 -46 214 -110 44 -83 22 -201
-51 -268 -64 -59 -118 -72 -298 -72 l-148 0 0 230 0 230 98 0 c53 0 137 -5
185 -10z"/>
<path d="M5260 715 l0 -605 425 0 425 0 0 70 0 70 -330 0 -330 0 0 535 0 535
-95 0 -95 0 0 -605z"/>
<path d="M7470 1260 l0 -60 90 0 90 0 0 -485 0 -485 -90 0 -90 0 0 -60 0 -60
280 0 280 0 0 60 0 60 -90 0 -90 0 0 485 0 485 90 0 90 0 0 60 0 60 -280 0
-280 0 0 -60z"/>
<path d="M9540 715 l0 -605 95 0 95 0 0 290 0 290 278 2 277 3 3 73 3 72 -281
0 -280 0 0 170 0 170 315 0 315 0 0 70 0 70 -410 0 -410 0 0 -605z"/>
</g>
</svg>
